<mxfile host="app.diagrams.net" agent="Mozilla/5.0 (Windows NT 10.0; Win64; x64) AppleWebKit/537.36 (KHTML, like Gecko) Chrome/130.0.0.0 Safari/537.36" version="24.8.4">
  <diagram id="C5RBs43oDa-KdzZeNtuy" name="Page-1">
    <mxGraphModel dx="1434" dy="738" grid="1" gridSize="10" guides="1" tooltips="1" connect="1" arrows="1" fold="1" page="1" pageScale="1" pageWidth="827" pageHeight="1169" math="0" shadow="0">
      <root>
        <mxCell id="WIyWlLk6GJQsqaUBKTNV-0" />
        <mxCell id="WIyWlLk6GJQsqaUBKTNV-1" parent="WIyWlLk6GJQsqaUBKTNV-0" />
        <mxCell id="Twu2v_B24_iK9aNCSJhN-1" value="Laucher" style="rounded=0;whiteSpace=wrap;html=1;" vertex="1" parent="WIyWlLk6GJQsqaUBKTNV-1">
          <mxGeometry x="220" y="50" width="150" height="30" as="geometry" />
        </mxCell>
        <mxCell id="Twu2v_B24_iK9aNCSJhN-8" style="edgeStyle=orthogonalEdgeStyle;rounded=0;orthogonalLoop=1;jettySize=auto;html=1;" edge="1" parent="WIyWlLk6GJQsqaUBKTNV-1" source="Twu2v_B24_iK9aNCSJhN-2">
          <mxGeometry relative="1" as="geometry">
            <mxPoint x="450" y="80" as="targetPoint" />
          </mxGeometry>
        </mxCell>
        <mxCell id="Twu2v_B24_iK9aNCSJhN-2" value="+Scanner sc&lt;div&gt;+UserDB mainUserDB&lt;/div&gt;&lt;div&gt;+User currentUser&lt;/div&gt;" style="rounded=0;whiteSpace=wrap;html=1;align=left;" vertex="1" parent="WIyWlLk6GJQsqaUBKTNV-1">
          <mxGeometry x="220" y="80" width="150" height="60" as="geometry" />
        </mxCell>
        <mxCell id="Twu2v_B24_iK9aNCSJhN-7" value="+void main(String)&lt;div&gt;+int selection(int)&lt;/div&gt;&lt;div&gt;+void login(Scanner)&lt;/div&gt;&lt;div&gt;+void loginMenu(Scanner)&lt;/div&gt;&lt;div&gt;+void friendMenu(Scanner)&lt;/div&gt;&lt;div&gt;+void searchUser(Scanner)&lt;/div&gt;&lt;div&gt;+void editInfo(Scanner)&lt;/div&gt;&lt;div&gt;+void logout()&lt;/div&gt;&lt;div&gt;+void createUser(Scanner)&lt;/div&gt;&lt;div&gt;+void help()&lt;/div&gt;" style="rounded=0;whiteSpace=wrap;html=1;align=left;" vertex="1" parent="WIyWlLk6GJQsqaUBKTNV-1">
          <mxGeometry x="220" y="140" width="150" height="170" as="geometry" />
        </mxCell>
        <mxCell id="Twu2v_B24_iK9aNCSJhN-9" value="User" style="rounded=0;whiteSpace=wrap;html=1;" vertex="1" parent="WIyWlLk6GJQsqaUBKTNV-1">
          <mxGeometry x="490" y="40" width="120" height="30" as="geometry" />
        </mxCell>
        <mxCell id="Twu2v_B24_iK9aNCSJhN-10" value="-name&lt;div&gt;-password&lt;/div&gt;&lt;div&gt;-personInfo&lt;/div&gt;&lt;div&gt;-contactInfo&lt;/div&gt;" style="rounded=0;whiteSpace=wrap;html=1;align=left;" vertex="1" parent="WIyWlLk6GJQsqaUBKTNV-1">
          <mxGeometry x="490" y="70" width="120" height="60" as="geometry" />
        </mxCell>
        <mxCell id="Twu2v_B24_iK9aNCSJhN-11" value="" style="rounded=0;whiteSpace=wrap;html=1;align=left;" vertex="1" parent="WIyWlLk6GJQsqaUBKTNV-1">
          <mxGeometry x="490" y="130" width="120" height="150" as="geometry" />
        </mxCell>
      </root>
    </mxGraphModel>
  </diagram>
</mxfile>
